<svg width="54" height="60" viewBox="0 0 54 60" fill="none" xmlns="http://www.w3.org/2000/svg">
<path d="M46.8456 16.2731L48.5447 14.574L49.3736 15.4029C49.7168 15.7461 50.1667 15.9178 50.6164 15.9178C51.0662 15.9178 51.5162 15.7461 51.8593 15.4029C52.5458 14.7165 52.5458 13.6035 51.8593 12.917L47.7157 8.77324C47.0295 8.08687 45.9164 8.08676 45.2298 8.77324C44.5433 9.45961 44.5433 10.5727 45.2298 11.2591L46.0587 12.088L44.3596 13.7871C40.8872 10.7409 36.741 8.69297 32.2734 7.79086V3.51562H32.8594C33.8302 3.51562 34.6172 2.72859 34.6172 1.75781C34.6172 0.787031 33.8302 0 32.8594 0H21.1406C20.1698 0 19.3828 0.787031 19.3828 1.75781C19.3828 2.72859 20.1698 3.51562 21.1406 3.51562H21.7266V7.79086C17.259 8.69297 13.1128 10.7409 9.64031 13.7872L7.94121 12.0881L8.77008 11.2593C9.45656 10.5728 9.45656 9.45984 8.77008 8.77336C8.08371 8.08687 6.97066 8.08687 6.28418 8.77336L2.14043 12.9171C1.45395 13.6036 1.45395 14.7165 2.14043 15.403C2.48367 15.7462 2.93355 15.9179 3.38332 15.9179C3.83309 15.9179 4.28309 15.7464 4.62621 15.403L5.45508 14.5741L7.15418 16.2732C2.93719 21.0804 0.632812 27.1791 0.632812 33.6328C0.632812 40.6758 3.37547 47.2971 8.35559 52.2772C13.3357 57.2573 19.957 60 27 60C34.043 60 40.6643 57.2573 45.6444 52.2772C50.6245 47.2971 53.3672 40.6758 53.3672 33.6328C53.3672 27.1792 51.0628 21.0804 46.8456 16.2731ZM25.2422 3.51562H28.7578V7.32469C28.1752 7.28648 27.5892 7.26562 27 7.26562C26.4108 7.26562 25.8248 7.28648 25.2422 7.32469V3.51562ZM27 56.4844C14.3996 56.4844 4.14844 46.2332 4.14844 33.6328C4.14844 21.0325 14.3996 10.7812 27 10.7812C39.6004 10.7812 49.8516 21.0325 49.8516 33.6328C49.8516 46.2332 39.6004 56.4844 27 56.4844Z" fill="#3CE800"/>
<path d="M27 17.8125C27.9708 17.8125 28.7578 17.0255 28.7578 16.0547C28.7578 15.0839 27.9708 14.2969 27 14.2969C26.0292 14.2969 25.2422 15.0839 25.2422 16.0547C25.2422 17.0255 26.0292 17.8125 27 17.8125Z" fill="#3CE800"/>
<path d="M27 52.9688C27.9708 52.9688 28.7578 52.1818 28.7578 51.2109C28.7578 50.2401 27.9708 49.4531 27 49.4531C26.0292 49.4531 25.2422 50.2401 25.2422 51.2109C25.2422 52.1818 26.0292 52.9688 27 52.9688Z" fill="#3CE800"/>
<path d="M19.9142 18.8667C20.1657 17.9289 19.6093 16.9648 18.6715 16.7134C17.7337 16.4619 16.7696 17.0183 16.5181 17.9561C16.2667 18.8939 16.8231 19.858 17.7609 20.1094C18.6987 20.3609 19.6628 19.8045 19.9142 18.8667Z" fill="#3CE800"/>
<path d="M34.9101 47.3336C34.0694 47.819 33.7813 48.894 34.2668 49.7347C34.7522 50.5754 35.8273 50.8636 36.668 50.3781C37.5087 49.8927 37.7968 48.8176 37.3113 47.9769C36.8259 47.1362 35.7508 46.8482 34.9101 47.3336Z" fill="#3CE800"/>
<path d="M12.2377 26.5409C13.1756 26.2895 13.732 25.3254 13.4805 24.3876C13.2291 23.4498 12.265 22.8934 11.3272 23.1448C10.3894 23.3963 9.83298 24.3603 10.0844 25.2981C10.3359 26.2359 11.2999 26.7924 12.2377 26.5409Z" fill="#3CE800"/>
<path d="M43.102 40.8996C42.2613 40.4142 41.1863 40.7023 40.7009 41.543C40.2155 42.3837 40.5035 43.4587 41.3442 43.9441C42.1849 44.4295 43.26 44.1415 43.7454 43.3008C44.2308 42.4601 43.9428 41.385 43.102 40.8996Z" fill="#3CE800"/>
<path d="M9.42188 35.3906C10.3927 35.3906 11.1797 34.6036 11.1797 33.6328C11.1797 32.662 10.3927 31.875 9.42188 31.875C8.45106 31.875 7.66406 32.662 7.66406 33.6328C7.66406 34.6036 8.45106 35.3906 9.42188 35.3906Z" fill="#3CE800"/>
<path d="M44.5781 35.3906C45.5489 35.3906 46.3359 34.6036 46.3359 33.6328C46.3359 32.662 45.5489 31.875 44.5781 31.875C43.6073 31.875 42.8203 32.662 42.8203 33.6328C42.8203 34.6036 43.6073 35.3906 44.5781 35.3906Z" fill="#3CE800"/>
<path d="M13.4808 42.8838C13.7322 41.946 13.1758 40.9819 12.238 40.7304C11.3002 40.479 10.3361 41.0354 10.0847 41.9732C9.83323 42.911 10.3896 43.8751 11.3274 44.1265C12.2652 44.378 13.2293 43.8216 13.4808 42.8838Z" fill="#3CE800"/>
<path d="M43.102 26.3661C43.9427 25.8807 44.2309 24.8056 43.7454 23.9649C43.26 23.1242 42.1849 22.836 41.3442 23.3215C40.5035 23.8069 40.2154 24.882 40.7009 25.7227C41.1863 26.5634 42.2612 26.8516 43.102 26.3661Z" fill="#3CE800"/>
<path d="M18.6766 50.5537C19.6145 50.3023 20.1709 49.3382 19.9194 48.4004C19.668 47.4626 18.7039 46.9062 17.7661 47.1576C16.8283 47.4091 16.2719 48.3732 16.5233 49.311C16.7748 50.2488 17.7388 50.8052 18.6766 50.5537Z" fill="#3CE800"/>
<path d="M36.668 16.8874C35.8273 16.402 34.7522 16.6901 34.2668 17.5308C33.7814 18.3715 34.0695 19.4465 34.9102 19.9319C35.7509 20.4173 36.8259 20.1293 37.3113 19.2886C37.7968 18.4479 37.5087 17.3728 36.668 16.8874Z" fill="#3CE800"/>
<path d="M27 28.3594C25.6942 28.3594 24.4986 28.8375 23.5766 29.6265L18.7451 26.8371C17.9041 26.3515 16.829 26.6397 16.3439 27.4805C15.8585 28.3212 16.1465 29.3963 16.9872 29.8816L21.8163 32.6697C21.7583 32.9822 21.7265 33.3038 21.7265 33.6328C21.7265 36.5406 24.0922 38.9063 27 38.9063C29.9077 38.9063 32.2734 36.5406 32.2734 33.6328C32.2734 30.725 29.9077 28.3594 27 28.3594ZM27 35.3906C26.0307 35.3906 25.2422 34.6021 25.2422 33.6328C25.2422 33.3643 25.3045 33.1108 25.4126 32.8828C25.4397 32.8436 25.466 32.8033 25.4902 32.7612C25.5144 32.7193 25.5352 32.6765 25.5556 32.6336C25.8732 32.1758 26.4018 31.875 27 31.875C27.9692 31.875 28.7578 32.6636 28.7578 33.6328C28.7578 34.6021 27.9692 35.3906 27 35.3906Z" fill="#3CE800"/>
</svg>
