<svg width="50" height="46" viewBox="0 0 50 46" fill="none" xmlns="http://www.w3.org/2000/svg">
<path d="M50 13.9753C50.0016 13.5828 49.8455 13.2062 49.5669 12.9298L37.0397 0.500186C36.467 -0.0679782 35.5425 -0.0663181 34.9721 0.504287L31.3317 4.14472C29.2049 3.94325 27.0352 4.16718 25.0007 4.79872C22.9631 4.1664 20.7977 3.94267 18.6683 4.14472L15.0279 0.504385C14.4574 -0.0661227 13.5331 -0.0679781 12.9604 0.500284L0.433116 12.9298C0.154502 13.2062 -0.00145462 13.5829 1.02265e-05 13.9753C0.00147507 14.3677 0.160557 14.7432 0.441221 15.0174L4.16612 18.6565C3.96046 20.8433 4.20323 23.0762 4.87775 25.1597C5.30392 26.476 5.88771 27.7106 6.62052 28.8559L5.96974 29.5066C4.25636 31.22 4.25636 34.0079 5.96974 35.7214C6.37413 36.1259 6.83888 36.4335 7.33478 36.6471C6.3755 38.3252 6.61036 40.5052 8.04142 41.9362C9.48077 43.3756 11.6577 43.6034 13.3289 42.6451C13.5462 43.1473 13.8577 43.6093 14.2563 44.0078C15.9709 45.7225 18.7589 45.7199 20.471 44.0078L20.8569 43.6219L21.7514 44.5163C21.8006 44.5656 21.8526 44.6106 21.9067 44.6514C22.735 45.4726 23.8328 45.9248 25.0002 45.9248C26.1698 45.9248 27.2696 45.4709 28.0987 44.6466C28.9177 43.8529 28.6275 44.1379 29.1435 43.622C29.6521 44.1306 30.675 45.295 32.6368 45.295C33.8107 45.295 34.9142 44.8379 35.7442 44.0079C36.143 43.6091 36.4547 43.1467 36.672 42.6441C38.3562 43.6056 40.5323 43.363 41.959 41.9362C43.3901 40.5053 43.6249 38.3251 42.6656 36.6471C43.1615 36.4336 43.6262 36.1259 44.0306 35.7214C45.7482 34.004 45.7483 31.2242 44.0306 29.5066L43.377 28.853C45.292 25.8459 46.1691 22.2259 45.8341 18.6565L49.5592 15.0173C49.8396 14.7432 49.9985 14.3678 50 13.9753ZM8.04132 33.6499C7.47013 33.0787 7.47013 32.1494 8.04122 31.5782L8.434 31.1854C8.55812 31.318 8.684 31.4491 8.8131 31.5782L10.4988 33.264L10.1129 33.6499C9.54171 34.221 8.61251 34.2211 8.04132 33.6499ZM12.1845 39.8647C11.6119 40.4372 10.6855 40.4372 10.1129 39.8647C9.54034 39.2921 9.54034 38.3657 10.1129 37.7931L12.5704 35.3355L14.6421 37.4071L12.1845 39.8647ZM18.3992 41.9363C17.8279 42.5074 16.8987 42.5074 16.3277 41.9363C16.051 41.6597 15.8985 41.2918 15.8985 40.9006C15.8985 40.5093 16.051 40.1415 16.3277 39.8647C16.3277 39.8647 16.3277 39.8646 16.3278 39.8645L16.7136 39.4788L18.7852 41.5504L18.3992 41.9363ZM41.9587 33.6501C41.3874 34.2212 40.4582 34.2212 39.8871 33.6501C39.8871 33.6501 39.8871 33.6501 39.887 33.65L29.5291 23.2919C28.9571 22.7198 28.0296 22.7198 27.4575 23.2919C26.8855 23.864 26.8855 24.7914 27.4575 25.3635L39.8871 37.7931C40.4583 38.3642 40.4583 39.2935 39.8871 39.8646C39.316 40.4359 38.3867 40.4358 37.8154 39.8646C37.1306 39.1798 26.1173 28.1665 25.3859 27.4351C24.8139 26.863 23.8863 26.863 23.3143 27.4351C22.7422 28.0071 22.7422 28.9346 23.3143 29.5066L33.6732 39.8656C34.2446 40.4381 34.2448 41.3637 33.6723 41.9363C33.0998 42.5088 32.1732 42.5088 31.6006 41.9363L21.2427 31.5783C20.6707 31.0062 19.7432 31.0062 19.1711 31.5783C18.599 32.1504 18.599 33.0778 19.1711 33.6499L27.0716 41.5504C26.596 42.026 26.8105 41.8151 26.0522 42.5499C26.0466 42.5553 26.0412 42.5606 26.0358 42.5661C25.7591 42.8428 25.3911 42.9952 25 42.9952C24.6087 42.9952 24.2409 42.8428 23.9644 42.5662C23.9589 42.5607 23.9534 42.5554 23.9479 42.55C23.0765 41.7057 11.8192 30.4411 10.8847 29.5067C7.92462 26.5468 6.56534 22.4687 7.15519 18.3183C7.22091 17.8563 7.06241 17.3906 6.72862 17.0644L3.55275 13.9616L13.988 3.60761L17.0987 6.71835C17.4244 7.04413 17.8846 7.19774 18.3406 7.1328C19.0602 7.03056 19.7876 6.98983 20.5132 7.00692C19.7663 7.53505 19.0604 8.12958 18.3993 8.79071C16.5913 10.5988 11.6994 15.4906 10.1129 17.0771C8.39542 18.7947 8.39513 21.5743 10.1129 23.292C10.9695 24.1487 12.0949 24.577 13.2202 24.577C14.3456 24.577 15.471 24.1487 16.3277 23.292L22.2045 17.4152C24.121 18.098 26.1693 18.1805 28.0902 17.71L41.9587 31.5785C42.5313 32.1511 42.5313 33.0774 41.9587 33.6501ZM43.2714 17.0643C42.9376 17.3905 42.7791 17.8561 42.8448 18.3183C43.2571 21.2194 42.6767 24.199 41.2435 26.7198L31.0146 16.4909C31.6897 16.0769 32.324 15.5818 32.9005 15.0055C33.4726 14.4334 33.4726 13.5059 32.9005 12.9339C32.3285 12.3618 31.401 12.3618 30.8289 12.9339C28.6373 15.1255 25.287 15.7011 22.4918 14.3659C21.9319 14.0984 21.2636 14.2129 20.8246 14.6519L14.2562 21.2204C13.6851 21.7916 12.756 21.7917 12.1845 21.2204C11.9078 20.9437 11.7554 20.5759 11.7554 20.1846C11.7554 19.7934 11.9078 19.4255 12.1845 19.1488C13.8979 17.4354 18.7757 12.5576 20.4709 10.8624C20.471 10.8623 20.4711 10.8621 20.4713 10.862C23.4121 7.92147 27.4857 6.53974 31.6595 7.1328C32.1152 7.19765 32.5757 7.04413 32.9014 6.71835L36.0121 3.60761L46.4473 13.9616L43.2714 17.0643Z" fill="#3CE800"/>
</svg>
