<svg width="78" height="74" viewBox="0 0 78 74" fill="none" xmlns="http://www.w3.org/2000/svg">
<path d="M75.9952 45.7915L60.9305 30.7272C58.1968 27.9934 54.562 26.4878 50.696 26.4878H49.5451C51.9797 23.8969 53.4737 20.4122 53.4737 16.5847C53.4737 8.60381 46.9808 2.11084 38.9999 2.11084C31.019 2.11084 24.526 8.60381 24.526 16.5847C24.526 20.4122 26.02 23.8969 28.4547 26.4878H27.3038C23.4378 26.4878 19.8032 27.9934 17.0693 30.7272L2.00444 45.7917C-0.668498 48.4648 -0.668498 52.8144 2.00459 55.4875L14.3454 67.8283C16.2586 69.7413 18.9618 70.3445 21.4788 69.445V71.4328C21.4788 72.6949 22.502 73.7181 23.7641 73.7181H54.2353C55.4975 73.7181 56.5207 72.6949 56.5207 71.4328V69.445C59.0381 70.3448 61.7412 69.7412 63.654 67.8283L75.995 55.4875C78.6683 52.8144 78.6683 48.4648 75.9952 45.7915ZM29.0969 16.5847C29.0969 11.1241 33.5394 6.68153 39 6.68153C44.4606 6.68153 48.9032 11.1241 48.9032 16.5847C48.9032 22.0453 44.4606 26.4878 39 26.4878C33.5394 26.4878 29.0969 22.0453 29.0969 16.5847ZM21.4791 55.5699L16.5487 50.6397L21.4791 45.7094V55.5699ZM72.7634 52.2557L60.4225 64.5966C59.419 65.6003 58.2598 65.2285 57.9282 65.0905C57.5986 64.9534 56.5275 64.3983 56.5212 62.9936V62.9682C56.5242 62.3714 56.7881 61.7671 57.2456 61.3096L66.2995 52.2558C66.7281 51.8273 66.969 51.246 66.969 50.6398C66.969 50.0336 66.7283 49.4525 66.2995 49.0239L55.8519 38.5764C55.1981 37.9226 54.2151 37.7273 53.3613 38.0811C52.5073 38.4347 51.9505 39.2681 51.9505 40.1924V62.9627V62.9996V69.1479H26.0499V62.9996C26.0499 62.9874 26.0499 62.975 26.0499 62.9627V40.192C26.0499 39.2676 25.4932 38.4342 24.6391 38.0806C23.7854 37.7269 22.8021 37.9223 22.1485 38.5759L11.7008 49.0235C11.2723 49.452 11.0314 50.0333 11.0314 50.6394C11.0314 51.2454 11.2721 51.8267 11.7008 52.2554L20.7548 61.309C21.2123 61.7665 21.4762 62.3709 21.4792 62.9676V62.993C21.4728 64.3977 20.4018 64.9529 20.0722 65.09C19.7407 65.2281 18.5817 65.5998 17.5778 64.5962L5.23713 52.2554C4.346 51.3643 4.346 49.9143 5.23698 49.0233L20.3017 33.9588C22.1721 32.0883 24.659 31.0582 27.3043 31.0582H50.6963C53.3415 31.0582 55.8284 32.0883 57.6989 33.9588L72.7634 49.0233C73.6542 49.9146 73.6542 51.3646 72.7634 52.2557ZM56.521 55.5699V45.7093L61.4514 50.6395L56.521 55.5699Z" fill="#E5E5E5"/>
<path d="M63.3792 7.90026C63.8148 7.90026 64.2552 7.77594 64.6448 7.51617L69.2155 4.46905C70.2658 3.76882 70.5495 2.34992 69.8493 1.29988C69.149 0.249692 67.7302 -0.0339955 66.6801 0.665929L62.1094 3.71305C61.0591 4.41328 60.7754 5.83218 61.4756 6.88222C61.9159 7.54298 62.6405 7.90026 63.3792 7.90026Z" fill="#E5E5E5"/>
<path d="M62.1094 24.5803L66.6801 27.6274C67.0699 27.8872 67.51 28.0115 67.9458 28.0115C68.6842 28.0115 69.409 27.6541 69.8493 26.9936C70.5495 25.9434 70.2657 24.5245 69.2155 23.8244L64.6448 20.7773C63.5946 20.0774 62.1757 20.3609 61.4756 21.4113C60.7754 22.4611 61.0591 23.88 62.1094 24.5803Z" fill="#E5E5E5"/>
<path d="M63.0723 14.1467C63.0723 15.4088 64.0956 16.432 65.3577 16.432H71.4519C72.714 16.432 73.7373 15.4088 73.7373 14.1467C73.7373 12.8846 72.714 11.8613 71.4519 11.8613H65.3577C64.0956 11.8613 63.0723 12.8846 63.0723 14.1467Z" fill="#E5E5E5"/>
<path d="M8.78478 4.46914L13.3555 7.51626C13.7452 7.77603 14.1854 7.90035 14.6211 7.90035C15.3596 7.90035 16.0843 7.54292 16.5246 6.88246C17.2249 5.83227 16.941 4.41337 15.8908 3.7133L11.3201 0.666173C10.27 -0.0337512 8.85106 0.249936 8.15098 1.30013C7.45075 2.35001 7.73444 3.76891 8.78478 4.46914Z" fill="#E5E5E5"/>
<path d="M13.3555 20.7771L8.78478 23.8242C7.73444 24.5244 7.45075 25.9433 8.15098 26.9934C8.59144 27.654 9.3159 28.0112 10.0545 28.0112C10.4901 28.0112 10.9306 27.8869 11.3201 27.6272L15.8908 24.58C16.9412 23.8798 17.2249 22.4609 16.5246 21.4109C15.8244 20.3607 14.4054 20.0771 13.3555 20.7771Z" fill="#E5E5E5"/>
<path d="M6.54819 16.432H12.6424C13.9046 16.432 14.9278 15.4088 14.9278 14.1467C14.9278 12.8846 13.9046 11.8613 12.6424 11.8613H6.54819C5.28607 11.8613 4.26285 12.8846 4.26285 14.1467C4.26285 15.4088 5.28607 16.432 6.54819 16.432Z" fill="#E5E5E5"/>
</svg>
